<svg width="41" height="40" viewBox="0 0 41 40" fill="none" xmlns="http://www.w3.org/2000/svg">
<path d="M35.5 9.16667C35.5 23.434 23.934 35 9.66667 35C9.02297 35 8.38477 34.9765 7.75287 34.9302C7.0277 34.877 6.6651 34.8505 6.33505 34.6605C6.06168 34.5032 5.80243 34.2242 5.66542 33.94C5.5 33.597 5.5 33.1968 5.5 32.3967V27.7012C5.5 27.0282 5.5 26.6917 5.61075 26.4033C5.70858 26.1485 5.86748 25.9217 6.0735 25.7427C6.30672 25.54 6.62293 25.425 7.25535 25.195L12.6001 23.2515C13.3359 22.984 13.7038 22.8502 14.0528 22.8728C14.3606 22.8928 14.6568 22.998 14.9084 23.1763C15.1938 23.3785 15.3952 23.7142 15.798 24.3857L17.1667 26.6667C21.5832 24.6665 25.1635 21.0815 27.1667 16.6667L24.8857 15.298C24.2142 14.8952 23.8785 14.6938 23.6763 14.4084C23.498 14.1568 23.3928 13.8606 23.3728 13.5528C23.3502 13.2038 23.484 12.8359 23.7515 12.1001L25.695 6.75535C25.925 6.12293 26.04 5.80672 26.2427 5.5735C26.4217 5.36748 26.6485 5.20858 26.9033 5.11075C27.1917 5 27.5282 5 28.2012 5H32.8967C33.6968 5 34.097 5 34.44 5.16542C34.7242 5.30243 35.0032 5.56168 35.1605 5.83505C35.3505 6.16512 35.377 6.5277 35.4302 7.25288C35.4765 7.88477 35.5 8.52297 35.5 9.16667Z" stroke="#3A3A3A" stroke-width="4" stroke-linecap="round" stroke-linejoin="round"/>
</svg>
